<?xml version="1.0" encoding="UTF-8"?>
<svg width="1200px" height="400px" viewBox="0 0 1200 400" version="1.1" xmlns="http://www.w3.org/2000/svg" xmlns:xlink="http://www.w3.org/1999/xlink">
    <title>github-header-light</title>
    <defs>
        <linearGradient x1="100%" y1="50%" x2="-4.61568826e-14%" y2="50%" id="linearGradient-1">
            <stop stop-color="#7FFF00" offset="0%"></stop>
            <stop stop-color="#66FFAA" offset="100%"></stop>
        </linearGradient>
    </defs>
    <g id="github-header-light" stroke="none" fill="none" fill-rule="evenodd" stroke-width="1">
        <g id="Kinetics" transform="translate(-20, 162)">
            <path d="M25,186 L49,186 C52,186 54,184 54,181 L54,150.6 C54,149.6 54.4,148.4 55,147.6 L64.8,134.2 C67.6,130.4 71,130.6 73.2,134.6 L101.2,183.4 C102,185 103.8,186 105.4,186 L131,186 C136.2,186 138,183 135.2,178.4 L91,104.2 L91,103.8 C89.8,102.2 90,100.2 91.2,98.6 L125.8,52.6 C129.4,47.8 127.8,44.6 121.8,44.6 L97.2,44.6 C95.6,44.6 94,45.4 93.2,46.6 L63.2,88 C57.8,95.4 54.2,94.2 54.2,85 L54,49.6 C54,46.6 52,44.6 49,44.6 L25,44.6 C22,44.6 20,46.6 20,49.6 L20,181 C20,184 22,186 25,186 Z" id="Path" fill="#000000" fill-rule="nonzero"></path>
            <path d="M141.945959,85.1317804 L144.945959,195.9347 C144.945959,232.066087 201.945959,232.066087 201.945959,195.9347 L198.945959,85.1317804 C198.945959,49.0003936 141.945959,49.0003936 141.945959,85.1317804 Z" id="Shape" fill="#000000" fill-rule="nonzero" transform="translate(171.7012, 140.0748) rotate(-7) translate(-171.7012, -140.0748)"></path>
            <path d="M252.975496,133.932368 C284.902529,131.583837 308.628122,112.208455 308.628122,60.2472033 C308.628122,40.578255 304.527403,23.8449705 297.497597,9.75378366 C301.305409,9.46021726 305.406128,9.46021726 309.21394,10.3409164 C344.655875,17.3865099 342.898424,55.2565746 329.42463,100.465799 C317.708288,133.638802 368.381468,151.546352 380.097811,118.373349 C400.894318,60.2472033 402.944678,-18.7221565 336.747344,-36.3361401 C309.799757,-43.6753 282.852169,-39.5653704 259.712393,-26.9420155 C238.330068,-36.9232729 211.968298,-38.6846713 183.849077,-30.4648123 C148.992958,-20.7771213 161.295118,28.2484664 194.979602,15.3315451 C203.47395,12.1023148 211.089573,10.6344828 218.119378,10.6344828 C206.110127,28.2484664 198.494505,49.0916804 197.32287,71.9898591 C194.686693,118.666916 225.442092,135.693766 252.975496,133.932368 Z M246.60886,70.3147604 C248.085167,58.3764665 251.333043,48.4764178 255.761965,40.0322586 C258.124056,47.6028841 259.600363,56.0470432 259.895625,65.3647361 C260.486147,82.2530544 257.828795,92.7354589 251.628305,93.0266368 C246.018337,93.3178147 245.132553,82.2530544 246.60886,70.3147604 Z" id="Shape" fill="#000000" fill-rule="nonzero" transform="translate(277.8464, 47.9105) rotate(-13) translate(-277.8464, -47.9105)"></path>
            <path d="M402.573394,68.9150469 C422.286999,68.9150469 437.222623,75.7169225 447.406411,87.1720922 C458.556931,99.7146844 464.003721,117.744282 464.003721,138.264253 C464.003721,143.613297 463.739277,148.962643 463.204141,152.984705 C463.017785,153.951202 462.540553,154.752609 461.854614,155.311335 C461.125405,155.905306 460.175535,156.220162 459.138967,156.220162 L385.274213,156.220162 C381.840799,156.220162 379.340636,157.450264 377.948081,159.277739 C376.522551,161.148487 376.084691,163.768236 377.387261,166.917526 C380.48263,174.341377 385.217738,179.65886 391.17293,183.187847 C397.480273,186.925516 405.186058,188.650497 413.83159,188.650497 C422.646745,188.650497 431.179015,186.673615 439.710535,182.426832 C441.125285,181.722603 442.54431,181.519028 443.791631,181.909299 C444.994645,182.285707 445.985901,183.213241 446.662162,184.580111 L455.757241,200.76867 C456.433679,201.916403 456.675458,203.11374 456.402681,204.199996 C456.139855,205.246623 455.401641,206.145087 454.290314,206.790477 C440.02491,215.364969 422.561957,219.915047 407.516017,219.915047 C386.20757,219.915047 367.350607,212.632139 354.075709,199.031836 C341.528058,186.176607 334.003721,167.705381 334.003721,144.551731 C334.003721,122.184984 341.581085,103.921014 353.376846,90.9439984 C366.260539,76.7701015 384.159391,68.9150469 402.573394,68.9150469 Z M403.392496,100.552317 C396.99236,100.552317 390.992561,102.56703 386.078486,106.654295 C381.57428,110.400653 377.967308,115.907647 375.868188,123.283351 C375.232122,125.437746 375.669728,127.216184 376.698909,128.485122 C377.693756,129.711729 379.348608,130.552317 381.599981,130.552317 L422.733353,130.552317 C424.611768,130.552317 426.135512,129.851523 427.156251,128.741054 C428.166172,127.642355 428.736543,126.100509 428.538526,124.217064 C427.916522,116.984814 425.517737,110.871813 421.063323,106.66816 C417.022845,102.85514 411.261796,100.552317 403.392496,100.552317 Z" id="Shape" stroke="#000000" stroke-width="4" fill-rule="nonzero" transform="translate(399.2861, 144.47) rotate(-17) translate(-399.2861, -144.47)"></path>
            <path d="M537.2,188.4 C551,188.4 567.4,183 575.6,175.2 C592.8,158.2 579.6,132.6 555.2,145 C551.4,147.2 543.4,150.4 537.2,150.4 C521.6,150.4 513.6,138.8 510.2,121.8 L539.4,115 C560.4,109.6 556,76 531.6,80.8 L507.8,85.4 C508,75.4 508.8,65.2 509.6,55.2 C510.8,30.8 474.6,25.8 471.6,55.2 C470.2,67.6 469.4,80.4 469.4,92.6 L466.4,93.2 C437,99 446.8,136.6 473.2,130.4 C480.6,163.8 499.2,188.4 537.2,188.4 Z" id="Path" fill="#000000" fill-rule="nonzero"></path>
            <path d="M589.906025,107.015815 L591.906025,180.615815 C591.906025,204.615815 629.906025,204.615815 629.906025,180.615815 L627.906025,107.015815 C627.906025,83.0158147 589.906025,83.0158147 589.906025,107.015815 Z" id="Path" fill="#000000" fill-rule="nonzero" transform="translate(609.906, 143.8158) rotate(11) translate(-609.906, -143.8158)"></path>
            <path d="M572.811541,23.4434429 C572.811541,56.0967092 599.033764,80.7298751 632.096566,80.7298751 C664.589319,80.7298751 690.811541,56.0967092 690.811541,23.4434429 C690.811541,-8.06409478 664.589319,-33.2701249 632.096566,-33.2701249 C599.033764,-33.2701249 572.811541,-8.06409478 572.811541,23.4434429 Z" id="Path" fill="url(#linearGradient-1)" fill-rule="nonzero" transform="translate(631.8115, 23.7299) rotate(2) translate(-631.8115, -23.7299)"></path>
            <path d="M695.439743,38.7371536 C729.56422,36.061857 750.157375,45.336075 762.760756,56.0489642 C770.468422,61.1474535 774.94295,67.3814901 776.845947,73.7567731 C778.960785,80.8417515 777.891832,88.0741044 774.378058,93.7488587 C771.036332,99.1457524 765.480834,103.1176 758.394444,104.199099 C752.042137,105.168565 744.504854,103.824398 736.226318,99.2786656 C722.225507,90.8134026 713.455709,89.7552869 699.437225,91.5240278 C687.39463,93.2121017 678.432851,99.3195401 672.616393,107.392158 C666.01803,116.549978 663.486124,128.263392 665.189448,138.96123 C666.80919,149.134123 670.654124,157.533515 676.702015,163.821252 C682.580576,169.932944 690.554096,174.073143 700.699803,175.838805 C710.418857,176.616958 719.747844,175.152764 728.097428,170.61959 C735.50705,166.596742 742.1621,160.153316 747.477168,150.622323 C751.845664,144.11361 757.190288,140.155063 762.744697,138.327879 C768.977637,136.277486 775.444648,136.918774 780.965492,139.534489 C786.679699,142.241817 791.386649,147.063233 793.775238,153.226815 C795.924184,158.772015 796.182522,165.390908 793.675918,172.521212 C788.118743,188.822904 777.092338,203.077342 760.648518,212.79472 C745.685577,221.63698 726.263383,226.717933 702.437936,226.240141 C676.806438,225.9084 654.825943,218.234557 638.107348,205.102881 C621.029034,191.688663 609.460939,172.587726 605.098584,149.894016 C599.873055,122.840801 607.513166,95.7918181 624.293002,75.1185064 C640.552409,55.086381 665.391028,41.0449088 695.439743,38.7371536 Z" id="Path" stroke="#000000" stroke-width="4" fill-rule="nonzero"></path>
            <path d="M806.787115,189.038474 C840.348284,189.038474 858.156252,171.519955 858.156252,148.996146 C858.156252,126.69985 841.033206,117.826834 825.736619,111.91149 C812.951411,107.361225 801.536047,104.631067 801.536047,97.3506433 C801.536047,91.4352994 805.873885,88.4776274 814.549562,88.4776274 C821.39878,88.4776274 828.476306,91.4352994 835.553832,95.7580507 C838.293519,97.3506433 841.489821,96.8956168 843.316279,94.3929713 L854.046721,80.2871512 C856.101487,77.5569925 855.644872,74.3718073 852.905185,72.5517015 C842.859664,65.7263047 830.074457,60.038474 813.179718,60.038474 C784.641309,60.038474 765.463497,75.7368867 765.463497,99.1707491 C765.463497,119.419426 782.81485,129.430008 797.654823,135.345352 C810.211724,140.350643 822.083702,143.763342 822.083702,151.043765 C822.083702,157.186622 817.745864,160.826834 807.700344,160.826834 C799.252974,160.826834 790.577298,157.641649 781.216699,151.271278 C778.248705,149.451172 775.052403,149.678686 772.997637,152.636358 L762.267195,167.424717 C760.440737,170.154876 760.897352,173.112548 763.408732,174.932654 C775.737325,183.578157 792.403756,189.038474 806.787115,189.038474 Z" id="Path" fill="#000000" fill-rule="nonzero" transform="translate(809.6563, 124.5385) rotate(4) translate(-809.6563, -124.5385)"></path>
        </g>
    </g>
</svg>