<?xml version="1.0" encoding="UTF-8"?>
<svg width="1200px" height="400px" viewBox="0 0 1200 400" version="1.1" xmlns="http://www.w3.org/2000/svg" xmlns:xlink="http://www.w3.org/1999/xlink">
    <title>github-header-dark</title>
    <defs>
        <linearGradient x1="100%" y1="50%" x2="-4.61568826e-14%" y2="50%" id="linearGradient-1">
            <stop stop-color="#7FFF00" offset="0%"></stop>
            <stop stop-color="#66FFAA" offset="100%"></stop>
        </linearGradient>
    </defs>
    <g id="github-header-dark" stroke="none" fill="none" fill-rule="evenodd" stroke-width="1">
        <g id="Kinetics" transform="translate(-20, 162)">
            <path d="M25,186 L49,186 C52,186 54,184 54,181 L54,150.6 C54,149.6 54.4,148.4 55,147.6 L64.8,134.2 C67.6,130.4 71,130.6 73.2,134.6 L101.2,183.4 C102,185 103.8,186 105.4,186 L131,186 C136.2,186 138,183 135.2,178.4 L91,104.2 L91,103.8 C89.8,102.2 90,100.2 91.2,98.6 L125.8,52.6 C129.4,47.8 127.8,44.6 121.8,44.6 L97.2,44.6 C95.6,44.6 94,45.4 93.2,46.6 L63.2,88 C57.8,95.4 54.2,94.2 54.2,85 L54,49.6 C54,46.6 52,44.6 49,44.6 L25,44.6 C22,44.6 20,46.6 20,49.6 L20,181 C20,184 22,186 25,186 Z" id="Path" fill="#FFFFFF" fill-rule="nonzero"></path>
            <path d="M141.945959,85.1317804 L144.945959,195.9347 C144.945959,232.066087 201.945959,232.066087 201.945959,195.9347 L198.945959,85.1317804 C198.945959,49.0003936 141.945959,49.0003936 141.945959,85.1317804 Z" id="Shape" fill="#FFFFFF" fill-rule="nonzero" transform="translate(171.7012, 140.0748) rotate(-7) translate(-171.7012, -140.0748)"></path>
            <path d="M252.975496,133.932368 C284.902529,131.583837 308.628122,112.208455 308.628122,60.2472033 C308.628122,40.578255 304.527403,23.8449705 297.497597,9.75378366 C301.305409,9.46021726 305.406128,9.46021726 309.21394,10.3409164 C344.655875,17.3865099 342.898424,55.2565746 329.42463,100.465799 C317.708288,133.638802 368.381468,151.546352 380.097811,118.373349 C400.894318,60.2472033 402.944678,-18.7221565 336.747344,-36.3361401 C309.799757,-43.6753 282.852169,-39.5653704 259.712393,-26.9420155 C238.330068,-36.9232729 211.968298,-38.6846713 183.849077,-30.4648123 C148.992958,-20.7771213 161.295118,28.2484664 194.979602,15.3315451 C203.47395,12.1023148 211.089573,10.6344828 218.119378,10.6344828 C206.110127,28.2484664 198.494505,49.0916804 197.32287,71.9898591 C194.686693,118.666916 225.442092,135.693766 252.975496,133.932368 Z M246.60886,70.3147604 C248.085167,58.3764665 251.333043,48.4764178 255.761965,40.0322586 C258.124056,47.6028841 259.600363,56.0470432 259.895625,65.3647361 C260.486147,82.2530544 257.828795,92.7354589 251.628305,93.0266368 C246.018337,93.3178147 245.132553,82.2530544 246.60886,70.3147604 Z" id="Shape" fill="#FFFFFF" fill-rule="nonzero" transform="translate(277.8464, 47.9105) rotate(-13) translate(-277.8464, -47.9105)"></path>
            <path d="M402.573394,68.4150469 C422.45661,68.4150469 437.511424,75.2892363 447.780093,86.8398845 C459.003115,99.4640302 464.503721,117.605761 464.503721,138.264253 C464.503721,143.643629 464.236672,149.023233 463.697848,153.064994 C463.489774,154.16125 462.946342,155.066957 462.170387,155.699004 C461.356386,156.362042 460.297692,156.720162 459.138967,156.720162 L385.274213,156.720162 C382.039488,156.720162 379.662737,157.852516 378.345776,159.580788 C377.010293,161.333367 376.634327,163.788924 377.848753,166.725107 C380.898212,174.03885 385.560234,179.280621 391.42783,182.757701 C397.664219,186.453323 405.284979,188.150497 413.83159,188.150497 C422.57103,188.150497 431.029659,186.18944 439.487725,181.979221 C441.033462,181.20979 442.582405,181.007044 443.940937,181.432112 C445.259137,181.84456 446.359108,182.846538 447.104393,184.346448 L456.190667,200.519337 C456.939944,201.792787 457.189219,203.120762 456.887625,204.321774 C456.594697,205.48827 455.78425,206.50109 454.541411,207.222854 C440.204039,215.840672 422.644734,220.415047 407.516017,220.415047 C386.061712,220.415047 367.08168,213.072446 353.717901,199.381083 C341.089813,186.443445 333.503721,167.857933 333.503721,144.551731 C333.503721,122.042246 341.137092,103.666114 353.006854,90.6076858 C365.987442,76.3271916 384.021453,68.4150469 402.573394,68.4150469 Z M403.392496,101.052317 C397.11124,101.052317 391.221546,103.026919 386.398218,107.038706 C381.960832,110.729486 378.414834,116.159159 376.347931,123.424293 C375.768979,125.384483 376.147173,127.011098 377.08724,128.170163 C378.003261,129.299581 379.534911,130.052317 381.599981,130.052317 L422.733353,130.052317 C424.451952,130.052317 425.852354,129.420732 426.788138,128.402686 C427.712084,127.39752 428.222875,125.984239 428.040699,124.263965 C427.431089,117.167653 425.093583,111.159028 420.720153,107.0318 C416.758142,103.29283 411.103401,101.052317 403.392496,101.052317 Z" id="Shape" stroke="#FFFFFF" stroke-width="3" fill-rule="nonzero" transform="translate(399.2861, 144.47) rotate(-17) translate(-399.2861, -144.47)"></path>
            <path d="M537.2,188.4 C551,188.4 567.4,183 575.6,175.2 C592.8,158.2 579.6,132.6 555.2,145 C551.4,147.2 543.4,150.4 537.2,150.4 C521.6,150.4 513.6,138.8 510.2,121.8 L539.4,115 C560.4,109.6 556,76 531.6,80.8 L507.8,85.4 C508,75.4 508.8,65.2 509.6,55.2 C510.8,30.8 474.6,25.8 471.6,55.2 C470.2,67.6 469.4,80.4 469.4,92.6 L466.4,93.2 C437,99 446.8,136.6 473.2,130.4 C480.6,163.8 499.2,188.4 537.2,188.4 Z" id="Path" fill="#FFFFFF" fill-rule="nonzero"></path>
            <path d="M589.906025,107.015815 L591.906025,180.615815 C591.906025,204.615815 629.906025,204.615815 629.906025,180.615815 L627.906025,107.015815 C627.906025,83.0158147 589.906025,83.0158147 589.906025,107.015815 Z" id="Path" fill="#FFFFFF" fill-rule="nonzero" transform="translate(609.906, 143.8158) rotate(11) translate(-609.906, -143.8158)"></path>
            <path d="M572.811541,23.4434429 C572.811541,56.0967092 599.033764,80.7298751 632.096566,80.7298751 C664.589319,80.7298751 690.811541,56.0967092 690.811541,23.4434429 C690.811541,-8.06409478 664.589319,-33.2701249 632.096566,-33.2701249 C599.033764,-33.2701249 572.811541,-8.06409478 572.811541,23.4434429 Z" id="Path" fill="url(#linearGradient-1)" fill-rule="nonzero" transform="translate(631.8115, 23.7299) rotate(2) translate(-631.8115, -23.7299)"></path>
            <path d="M695.400664,38.2386831 C729.717643,35.5482947 750.413621,44.8976641 763.08458,55.6679948 C770.859659,60.8064927 775.393305,67.1421391 777.325058,73.6137604 C779.483104,80.8434908 778.388126,88.2223564 774.803162,94.012081 C771.38826,99.5271556 765.712145,103.588088 758.469879,104.693376 C752.028619,105.676418 744.38221,104.32779 735.983183,99.7159504 C722.095619,91.3160731 713.401007,90.2661529 699.499815,92.0200948 C687.616124,93.6859397 678.765418,99.7132866 673.022061,107.684449 C666.501194,116.734712 663.999945,128.31064 665.683228,138.88261 C667.285105,148.943301 671.080016,157.255033 677.062374,163.474638 C682.873329,169.516043 690.758374,173.601179 700.78553,175.346209 C710.359969,176.110731 719.594449,174.667107 727.85886,170.180175 C735.19931,166.194882 741.787036,159.805946 747.050006,150.361571 C751.493885,143.733154 756.937788,139.711766 762.588453,137.852918 C768.947852,135.760925 775.546379,136.413693 781.179574,139.082638 C787.006765,141.843497 791.805752,146.760988 794.241454,153.046142 C796.428707,158.690191 796.699606,165.427639 794.14762,172.687035 C788.555074,189.092558 777.456444,203.442954 760.902894,213.225176 C745.872032,222.107574 726.363358,227.220038 702.427911,226.740041 C676.677697,226.406776 654.595721,218.689523 637.7985,205.49609 C620.62756,192.009117 608.993739,172.805977 604.607658,149.988842 C599.3536,122.78793 607.032847,95.5901913 623.904787,74.8034051 C640.244243,54.672656 665.203527,40.5578366 695.400664,38.2386831 Z" id="Path" stroke="#FFFFFF" stroke-width="3" fill-rule="nonzero"></path>
            <path d="M806.787115,189.038474 C840.348284,189.038474 858.156252,171.519955 858.156252,148.996146 C858.156252,126.69985 841.033206,117.826834 825.736619,111.91149 C812.951411,107.361225 801.536047,104.631067 801.536047,97.3506433 C801.536047,91.4352994 805.873885,88.4776274 814.549562,88.4776274 C821.39878,88.4776274 828.476306,91.4352994 835.553832,95.7580507 C838.293519,97.3506433 841.489821,96.8956168 843.316279,94.3929713 L854.046721,80.2871512 C856.101487,77.5569925 855.644872,74.3718073 852.905185,72.5517015 C842.859664,65.7263047 830.074457,60.038474 813.179718,60.038474 C784.641309,60.038474 765.463497,75.7368867 765.463497,99.1707491 C765.463497,119.419426 782.81485,129.430008 797.654823,135.345352 C810.211724,140.350643 822.083702,143.763342 822.083702,151.043765 C822.083702,157.186622 817.745864,160.826834 807.700344,160.826834 C799.252974,160.826834 790.577298,157.641649 781.216699,151.271278 C778.248705,149.451172 775.052403,149.678686 772.997637,152.636358 L762.267195,167.424717 C760.440737,170.154876 760.897352,173.112548 763.408732,174.932654 C775.737325,183.578157 792.403756,189.038474 806.787115,189.038474 Z" id="Path" fill="#FFFFFF" fill-rule="nonzero" transform="translate(809.6563, 124.5385) rotate(4) translate(-809.6563, -124.5385)"></path>
        </g>
    </g>
</svg>